<?xml version="1.0" encoding="utf-8"?>
<!-- Generator: Adobe Illustrator 23.0.3, SVG Export Plug-In . SVG Version: 6.00 Build 0)  -->
<svg version="1.1" xmlns="http://www.w3.org/2000/svg" xmlns:xlink="http://www.w3.org/1999/xlink" x="0px" y="0px"
	 viewBox="0 0 23.4 23.4" style="enable-background:new 0 0 23.4 23.4;" xml:space="preserve">
<style type="text/css">
	.st0{enable-background:new    ;}
	.st1{fill:#3F3F3F;}
	.st2{fill-rule:evenodd;clip-rule:evenodd;fill:#3F3F3F;}
	.st3{fill-rule:evenodd;clip-rule:evenodd;fill:#9B9293;}
</style>
<g id="Background_1_" class="st0">
</g>
<g id="Bag_xA0_Image_1_">
	<path class="st1" d="M23.1,5.7l-3.7,16.7c-0.1,0.5-0.5,0.8-1,0.8H5c-0.5,0-0.9-0.3-1-0.8L0.3,5.7h5.9v2.1c0,0.9,0.7,1.7,1.6,1.7
		c0.9,0,1.7-0.7,1.7-1.7V5.7h4.4v2.1c0,0.9,0.7,1.7,1.6,1.7c0.9,0,1.7-0.7,1.7-1.7V5.7H23.1z"/>
</g>
<g id="Profile_1_" class="st0">
</g>
<g id="Favorates_xA0_Image_1_">
</g>
<g id="Shape_1_1_" class="st0">
</g>
<g id="Search_Icon_1_" class="st0">
	<g>
		<g>
			<path class="st1" d="M16.4,5.5v2.3c0,0.5-0.4,0.9-0.9,0.9c-0.5,0-0.9-0.4-0.9-0.9V5.5c0-1.8-1.3-3.2-3-3.2s-3,1.5-3,3.2v2.3
				c0,0.5-0.4,0.9-0.9,0.9C7.3,8.7,7,8.3,7,7.8V5.5c0-2.8,2.1-5,4.7-5S16.4,2.8,16.4,5.5z"/>
		</g>
	</g>
</g>
<g id="LIne_1_" class="st0">
</g>
<g id="_xBF_Qué_producto_estás_buscando_x3F_">
</g>
<g id="Vector_Smart_Object_xA0_Image_1_">
</g>
</svg>
