<?xml version="1.0" encoding="utf-8"?>
<!-- Generator: Adobe Illustrator 23.0.4, SVG Export Plug-In . SVG Version: 6.00 Build 0)  -->
<svg version="1.0" id="Layer_1" xmlns="http://www.w3.org/2000/svg" xmlns:xlink="http://www.w3.org/1999/xlink" x="0px" y="0px"
	 viewBox="0 0 23.4 23.4" enable-background="new 0 0 23.4 23.4" xml:space="preserve">
<g>
	<path fill="#FF969C" d="M17.2,5.7v2.1c0,1-0.8,1.7-1.7,1.7s-1.6-0.8-1.6-1.7V5.7H9.5v2.1c0,1-0.8,1.7-1.7,1.7
		c-0.9,0-1.6-0.8-1.6-1.7V5.7H0.3L4,22.4c0.1,0.5,0.5,0.8,1,0.8h13.4c0.5,0,0.9-0.3,1-0.8l3.7-16.7H17.2z"/>
	<path fill="#FF969C" d="M7.7,8.7c0.5,0,0.9-0.4,0.9-0.9V5.5c0-1.7,1.3-3.2,3-3.2c1.7,0,3,1.4,3,3.2v2.3c0,0.5,0.4,0.9,0.9,0.9
		s0.9-0.4,0.9-0.9V5.5c0-2.7-2.1-5-4.7-5C9.1,0.5,7,2.7,7,5.5v2.3C7,8.3,7.3,8.7,7.7,8.7z"/>
</g>
</svg>
