<?xml version="1.0" encoding="utf-8"?>
<!-- Generator: Adobe Illustrator 23.0.4, SVG Export Plug-In . SVG Version: 6.00 Build 0)  -->
<svg version="1.1" id="Layer_1" xmlns="http://www.w3.org/2000/svg" xmlns:xlink="http://www.w3.org/1999/xlink" x="0px" y="0px"
	 viewBox="0 0 49 39" style="enable-background:new 0 0 49 39;" xml:space="preserve">
<style type="text/css">
	.st0{enable-background:new    ;}
	.st1{fill:#A8A8A8;}
	.st2{fill-rule:evenodd;clip-rule:evenodd;fill:#A8A8A8;}
</style>
<g>
	<path class="st1" d="M42.6,0.3H6.5c-3.4,0-6.2,2.8-6.2,6.2v26.1c0,3.4,2.8,6.2,6.2,6.2h36.1c3.4,0,6.2-2.8,6.2-6.2V6.5
		C48.7,3.1,46,0.3,42.6,0.3z M45.7,32.6c0,1.8-1.4,3.2-3.2,3.2H6.5c-1.8,0-3.2-1.4-3.2-3.2V18.2h42.4V32.6z M45.7,9.9H3.3V6.5
		c0-1.8,1.4-3.2,3.2-3.2h36.1c1.8,0,3.2,1.4,3.2,3.2V9.9z"/>
	<path class="st1" d="M8.7,31h2.6c0.8,0,1.5-0.7,1.5-1.5S12.1,28,11.3,28H8.7c-0.8,0-1.5,0.7-1.5,1.5S7.9,31,8.7,31z"/>
	<path class="st1" d="M17.1,31h6.6c0.8,0,1.5-0.7,1.5-1.5S24.5,28,23.7,28h-6.6c-0.8,0-1.5,0.7-1.5,1.5S16.3,31,17.1,31z"/>
</g>
</svg>
