<?xml version="1.0" encoding="utf-8"?>
<!-- Generator: Adobe Illustrator 23.0.4, SVG Export Plug-In . SVG Version: 6.00 Build 0)  -->
<svg version="1.1" id="Layer_1" xmlns="http://www.w3.org/2000/svg" xmlns:xlink="http://www.w3.org/1999/xlink" x="0px" y="0px"
	 viewBox="0 0 49 39" style="enable-background:new 0 0 49 39;" xml:space="preserve">
<style type="text/css">
	.st0{enable-background:new    ;}
	.st1{fill:#A8A8A8;}
	.st2{fill-rule:evenodd;clip-rule:evenodd;fill:#A8A8A8;}
</style>
<g>
	<path class="st2" d="M47.1,27.9v-6.4v-3.5v-0.8c0-0.5-0.2-1-0.5-1.3L39,8.5c-0.3-0.3-0.8-0.5-1.3-0.5h-4.9V5.2c0-2.8-2.2-5-5-5H5.4
		c-2.8,0-5,2.2-5,5v12.8h0v7.5c0,3,2.1,5.4,4.9,6c-0.1,0.4-0.1,0.7-0.1,1.1c0,3.3,2.7,6.1,6.1,6.1c3.4,0,6.1-2.7,6.1-6.1
		c0-0.3,0-0.7-0.1-1h0.7h8.7h3.7c-0.1,0.3-0.1,0.6-0.1,1c0,3.3,2.7,6.1,6.1,6.1c3.3,0,6.1-2.7,6.1-6.1c0-0.3,0-0.6-0.1-1h4.7
		c1,0,1.8-0.8,1.8-1.8v-0.1C48.9,28.8,48.1,27.9,47.1,27.9z M36.9,11.7l6.4,6.4H32.8h0v-6.4H36.9z M14.5,32.7c0,1.8-1.5,3.3-3.3,3.3
		c-1.8,0-3.3-1.5-3.3-3.3c0-0.3,0-0.7,0.2-1c0.4-1.3,1.6-2.3,3.1-2.3c1.5,0,2.7,1,3.2,2.3C14.5,32,14.5,32.3,14.5,32.7z M36.4,35.9
		c-1.8,0-3.3-1.5-3.3-3.3c0-0.3,0.1-0.7,0.2-1c0.4-1.3,1.7-2.3,3.1-2.3c1.5,0,2.7,1,3.1,2.3c0.1,0.3,0.1,0.6,0.1,1
		C39.6,34.5,38.2,35.9,36.4,35.9z"/>
</g>
</svg>
