<?xml version="1.0" encoding="utf-8"?>
<!-- Generator: Adobe Illustrator 23.0.4, SVG Export Plug-In . SVG Version: 6.00 Build 0)  -->
<svg version="1.1" id="Layer_1" xmlns="http://www.w3.org/2000/svg" xmlns:xlink="http://www.w3.org/1999/xlink" x="0px" y="0px"
	 viewBox="0 0 23.4 23.4" style="enable-background:new 0 0 23.4 23.4;" xml:space="preserve">
<style type="text/css">
	.st0{fill:#FFFFFF;}
</style>
<g id="Background_1_">
</g>
<g id="Bag_xA0_Image_1_">
</g>
<g id="Profile_1_">
	<g id="Shape_2">
		<g>
			<g>
				<path class="st0" d="M16.9,1.1c3,0,5.4,3.7,5.4,6.9c0,3.6-2.7,6.1-7.1,10.3c-0.8,0.8-1.7,1.6-2.6,2.5l0,0l0,0l-0.9,1l-0.9-1l0,0
					l0,0C10,20,9.2,19.3,8.5,18.6C3.9,14.3,1.1,11.7,1.1,8c0-3.3,2.3-6.9,5.4-6.9c1.7,0,3.3,0.8,4.4,2.2l0.8,1l0.8-1
					C13.6,1.9,15.2,1.1,16.9,1.1 M16.9,0.1c-2,0-3.9,1-5.2,2.6c-1.3-1.6-3.2-2.6-5.2-2.6c-3.6,0-6.4,4-6.4,7.9
					c0,4.8,3.9,7.7,10,13.5l1.6,1.8l1.6-1.8c6-5.8,10-8.7,10-13.5C23.3,4.2,20.5,0.1,16.9,0.1L16.9,0.1z"/>
			</g>
		</g>
	</g>
</g>
<g id="Favorates_xA0_Image_1_">
</g>
<g id="Shape_1_1_">
</g>
<g id="Search_Icon_1_">
</g>
<g id="LIne_1_">
</g>
<g id="_xBF_Qué_producto_estás_buscando_x3F_">
</g>
<g id="Vector_Smart_Object_xA0_Image_1_">
</g>
</svg>
