<?xml version="1.0" encoding="utf-8"?>
<!-- Generator: Adobe Illustrator 23.0.3, SVG Export Plug-In . SVG Version: 6.00 Build 0)  -->
<svg version="1.1" id="Layer_1" xmlns="http://www.w3.org/2000/svg" xmlns:xlink="http://www.w3.org/1999/xlink" x="0px" y="0px"
	 viewBox="0 0 23.4 23.4" style="enable-background:new 0 0 23.4 23.4;" xml:space="preserve">
<style type="text/css">
	.st0{fill:#4A555C;}
</style>
<path class="st0" d="M18.8,0.1H4.6c-2.5,0-4.5,2-4.5,4.5v4.7v9.5c0,2.5,2,4.5,4.5,4.5h14.2c2.5,0,4.5-2,4.5-4.5V9.3V4.6
	C23.3,2.1,21.3,0.1,18.8,0.1z M20.1,2.8l0.5,0v0.5v3.4l-3.9,0l0-3.9L20.1,2.8z M8.4,9.3c0.7-1,1.9-1.7,3.3-1.7s2.6,0.7,3.3,1.7
	c0.5,0.7,0.8,1.5,0.8,2.4c0,2.2-1.8,4.1-4.1,4.1s-4.1-1.8-4.1-4.1C7.6,10.8,7.9,10,8.4,9.3z M21,18.8c0,1.2-1,2.2-2.2,2.2H4.6
	c-1.2,0-2.2-1-2.2-2.2V9.3h3.5c-0.3,0.7-0.5,1.5-0.5,2.4c0,3.5,2.8,6.3,6.3,6.3c3.5,0,6.3-2.8,6.3-6.3c0-0.8-0.2-1.6-0.5-2.4H21
	V18.8z"/>
</svg>
