<?xml version="1.0" encoding="utf-8"?>
<!-- Generator: Adobe Illustrator 23.0.4, SVG Export Plug-In . SVG Version: 6.00 Build 0)  -->
<svg version="1.1" id="Layer_1" xmlns="http://www.w3.org/2000/svg" xmlns:xlink="http://www.w3.org/1999/xlink" x="0px" y="0px"
	 viewBox="0 0 14 14" style="enable-background:new 0 0 14 14;" xml:space="preserve">
<style type="text/css">
	.st0{fill-rule:evenodd;clip-rule:evenodd;fill:#A8A8A8;}
</style>
<path class="st0" d="M2.5,5.1H0.6c-0.2,0-0.5,0.2-0.5,0.5v7.6c0,0.3,0.2,0.5,0.5,0.5h1.9c0.2,0,0.5-0.2,0.5-0.5V5.6
	C2.9,5.3,2.7,5.1,2.5,5.1z"/>
<path class="st0" d="M12.8,4.7c-0.1,0-3.7,0-3.7,0l0.4-1.4c0.3-1.2,0.1-2.4-0.8-2.9C8.5,0.2,8,0.1,7.7,0.2C7.5,0.3,7.3,0.4,7.2,0.6
	C7.1,0.8,7.1,1,7.1,1.3C7,1.9,6.9,3,6.5,3.5C5.8,4.2,3.5,5.7,3.5,5.7v7.7h7.7c1,0,1.7-1.2,1.2-2.1c0.6-0.4,0.8-1.3,0.5-1.9
	c0.6-0.4,0.8-1.3,0.5-1.9C14.3,6.6,14,4.7,12.8,4.7z"/>
</svg>
