<?xml version="1.0" encoding="utf-8"?>
<!-- Generator: Adobe Illustrator 23.0.3, SVG Export Plug-In . SVG Version: 6.00 Build 0)  -->
<svg version="1.1" id="Layer_1" xmlns="http://www.w3.org/2000/svg" xmlns:xlink="http://www.w3.org/1999/xlink" x="0px" y="0px"
	 viewBox="0 0 219.1 48" style="enable-background:new 0 0 219.1 48;" xml:space="preserve">
<style type="text/css">
	.st0{fill:#40403F;}
</style>
<g>
	<g>
		<g>
			<path class="st0" d="M136.7,18.5l0.1,2.7h-0.4c-0.1-0.6-0.2-1.1-0.5-1.5c-0.3-0.4-0.5-0.6-0.8-0.7c-0.3-0.1-0.8-0.1-1.4-0.1h-2.1
				v4.6h1c0.7,0,1.1-0.1,1.3-0.3c0.2-0.2,0.3-0.7,0.3-1.3h0.4v3.8h-0.4c0-0.5,0-0.8-0.1-1.1c-0.1-0.3-0.2-0.4-0.4-0.5
				c-0.2-0.1-0.5-0.1-1.1-0.1h-1v2.7c0,0.8,0,1.4,0.1,1.7c0,0.3,0.1,0.5,0.3,0.6c0.2,0.1,0.5,0.2,1,0.2h0.4v0.4h-5v-0.4h0.3
				c0.5,0,0.8-0.1,1-0.2c0.2-0.1,0.3-0.3,0.3-0.5c0.1-0.2,0.1-0.8,0.1-1.7v-5.3c0-0.9,0-1.4-0.1-1.7c-0.1-0.2-0.2-0.4-0.3-0.5
				c-0.2-0.1-0.5-0.1-1.1-0.1h-0.2v-0.4H136.7z"/>
			<path class="st0" d="M145.8,25.3h-4.1l-0.3,0.7c-0.4,1-0.6,1.6-0.6,1.9c0,0.3,0.1,0.6,0.3,0.7c0.2,0.2,0.5,0.3,0.8,0.3v0.4h-3.2
				v-0.4c0.5-0.1,0.8-0.2,1.1-0.5c0.2-0.3,0.5-0.8,0.8-1.7c0-0.1,0.2-0.4,0.4-0.9l3.1-7.5h0.3l3.6,8.6l0.5,1.1
				c0.1,0.3,0.3,0.5,0.4,0.6c0.2,0.1,0.5,0.2,0.8,0.3v0.4h-4.2v-0.4c0.5,0,0.9,0,1.1-0.1c0.2-0.1,0.3-0.2,0.3-0.5
				c0-0.1-0.1-0.5-0.4-1L145.8,25.3z M145.6,24.9l-1.9-4.6l-1.9,4.6H145.6z"/>
			<path class="st0" d="M154,29.2v-3.5h0.4c0.4,2.3,1.5,3.4,3.2,3.4c0.8,0,1.3-0.2,1.8-0.6c0.4-0.4,0.6-0.9,0.6-1.4
				c0-0.5-0.2-1-0.5-1.4c-0.4-0.4-1-0.7-2-1.2c-0.9-0.4-1.5-0.7-2-1c-0.4-0.3-0.8-0.6-1-1.1c-0.2-0.4-0.4-0.9-0.4-1.4
				c0-0.8,0.3-1.4,0.8-1.9c0.5-0.5,1.2-0.8,2-0.8c0.5,0,0.9,0.1,1.3,0.2c0.4,0.1,0.8,0.5,1.2,0.9c0.2-0.3,0.4-0.6,0.4-0.9h0.3v2.8
				h-0.3c-0.2-0.8-0.6-1.5-1.1-1.9c-0.5-0.5-1.1-0.7-1.8-0.7c-0.6,0-1.1,0.2-1.4,0.5c-0.3,0.3-0.4,0.7-0.4,1.1
				c0,0.5,0.2,0.9,0.6,1.3c0.4,0.3,1,0.7,2,1.2c0.9,0.4,1.6,0.7,2,1c0.4,0.3,0.8,0.6,1,1c0.3,0.4,0.4,1,0.4,1.5
				c0,0.9-0.3,1.7-0.9,2.2c-0.6,0.6-1.4,0.9-2.5,0.9c-1.2,0-2.2-0.5-3-1.4c-0.2,0.2-0.3,0.6-0.4,1H154z"/>
			<path class="st0" d="M174.4,23.9h-5.6v2.6c0,0.8,0,1.4,0.1,1.7c0,0.3,0.1,0.5,0.3,0.6c0.2,0.1,0.5,0.2,1,0.2h0.3v0.4h-4.8v-0.4
				h0.3c0.5,0,0.8-0.1,1-0.2c0.2-0.1,0.3-0.3,0.3-0.5c0.1-0.2,0.1-0.8,0.1-1.7v-5.3c0-0.9,0-1.4-0.1-1.7c-0.1-0.2-0.2-0.4-0.3-0.5
				c-0.2-0.1-0.5-0.1-1.1-0.1h-0.2v-0.4h4.8v0.4h-0.2c-0.5,0-0.9,0-1,0.1c-0.2,0.1-0.3,0.3-0.3,0.5c-0.1,0.2-0.1,0.8-0.1,1.7v2.1
				h5.6v-2.1c0-0.9,0-1.4-0.1-1.7s-0.2-0.4-0.3-0.5c-0.2-0.1-0.5-0.1-1.1-0.1h-0.3v-0.4h4.9v0.4h-0.2c-0.5,0-0.9,0-1,0.1
				c-0.2,0.1-0.3,0.3-0.3,0.5c-0.1,0.2-0.1,0.8-0.1,1.7v5.3c0,0.8,0,1.4,0.1,1.7c0,0.3,0.1,0.5,0.3,0.6c0.2,0.1,0.5,0.2,1,0.2h0.2
				v0.4h-4.9v-0.4h0.4c0.5,0,0.8-0.1,0.9-0.2c0.2-0.1,0.3-0.3,0.3-0.5c0-0.2,0.1-0.8,0.1-1.7V23.9z"/>
			<path class="st0" d="M181.8,18.9v-0.4h4.9v0.4h-0.2c-0.5,0-0.9,0-1,0.1c-0.2,0.1-0.3,0.3-0.3,0.5c-0.1,0.2-0.1,0.8-0.1,1.7v5.3
				c0,0.8,0,1.4,0.1,1.7c0,0.3,0.1,0.5,0.3,0.6c0.2,0.1,0.5,0.2,1,0.2h0.3v0.4h-4.9v-0.4h0.3c0.5,0,0.8-0.1,1-0.2
				c0.2-0.1,0.3-0.3,0.3-0.5c0-0.2,0.1-0.8,0.1-1.7v-5.3c0-0.9,0-1.4-0.1-1.7s-0.2-0.4-0.3-0.5c-0.2-0.1-0.5-0.1-1.1-0.1H181.8z"/>
			<path class="st0" d="M191.2,23.8c0-1.7,0.6-3,1.7-4c1.1-1,2.5-1.5,4.2-1.5c1.7,0,3.1,0.5,4.2,1.5c1.1,1,1.7,2.4,1.7,4.1
				c0,1.7-0.5,3-1.6,4.1c-1.1,1-2.5,1.5-4.3,1.5c-1.7,0-3.1-0.5-4.2-1.5C191.8,26.9,191.2,25.5,191.2,23.8z M193,23.9
				c0,1.7,0.3,3,1,3.9c0.7,0.9,1.7,1.3,3.1,1.3c1.2,0,2.2-0.4,2.9-1.3c0.7-0.9,1.1-2.2,1.1-3.9c0-1.7-0.3-3-1-3.8
				c-0.7-0.9-1.7-1.3-3-1.3c-1.3,0-2.3,0.4-3,1.3C193.4,20.9,193,22.2,193,23.9z"/>
			<path class="st0" d="M217,29.5l-7.6-10.1v7.5c0,0.6,0,1,0.1,1.2c0.1,0.2,0.2,0.4,0.5,0.5c0.3,0.2,0.7,0.2,1.3,0.2v0.4h-4v-0.4
				c0.5,0,0.9-0.1,1.2-0.3c0.3-0.2,0.4-0.3,0.5-0.5c0.1-0.2,0.1-0.6,0.1-1.2v-5.7c0-0.8,0-1.4-0.1-1.7c-0.1-0.3-0.2-0.5-0.4-0.5
				s-0.5-0.1-1.1-0.1v-0.4h3.2l6.4,8.4v-6.4c0-0.5,0-0.8-0.1-1c-0.1-0.2-0.3-0.3-0.6-0.5c-0.3-0.1-0.7-0.2-1.1-0.2v-0.4h3.9v0.4
				c-0.5,0-0.8,0.1-1.1,0.3c-0.3,0.1-0.4,0.3-0.5,0.5c-0.1,0.2-0.1,0.5-0.1,1v8.9H217z"/>
		</g>
		<g>
			<path class="st0" d="M69.9,18.9c0-0.1,0.1-0.2,0.2-0.2h3.2c1.9,0,3.1,1.1,3.1,2.7c0,1.2-0.7,2.1-1.7,2.4c1.1,0.3,2,1.1,2,2.5
				c0,1.7-1.4,2.9-3.3,2.9h-3.3c-0.1,0-0.2-0.1-0.2-0.2V18.9z M73.5,28.6c1.5,0,2.5-0.9,2.5-2.2c0-1.3-1.1-2.1-2.6-2.1h-2.8v4.4
				H73.5z M73.4,23.6c1.4,0,2.2-0.9,2.2-2.1c0-1.3-0.9-2.1-2.4-2.1h-2.7v4.2H73.4z"/>
			<path class="st0" d="M82.2,18.9c0-0.1,0.1-0.2,0.2-0.2h6c0.1,0,0.2,0.1,0.2,0.2v0.3c0,0.1-0.1,0.2-0.2,0.2h-5.5v4.2h4.8
				c0.1,0,0.2,0.1,0.2,0.2V24c0,0.1-0.1,0.2-0.2,0.2h-4.8v4.5h5.5c0.1,0,0.2,0.1,0.2,0.2v0.2c0,0.1-0.1,0.2-0.2,0.2h-6
				c-0.1,0-0.2-0.1-0.2-0.2V18.9z"/>
			<path class="st0" d="M94.2,18.9c0-0.1,0.1-0.2,0.2-0.2h0.3c0.1,0,0.2,0.1,0.2,0.2v9.7h4.8c0.2,0,0.2,0.1,0.2,0.2v0.3
				c0,0.1-0.1,0.2-0.2,0.2h-5.3c-0.1,0-0.2-0.1-0.2-0.2V18.9z"/>
			<path class="st0" d="M104.5,18.9c0-0.1,0.1-0.2,0.2-0.2h0.3c0.1,0,0.2,0.1,0.2,0.2v9.7h4.8c0.2,0,0.2,0.1,0.2,0.2v0.3
				c0,0.1-0.1,0.2-0.2,0.2h-5.3c-0.1,0-0.2-0.1-0.2-0.2V18.9z"/>
			<path class="st0" d="M113.8,29.1l4.6-10.5c0-0.1,0.1-0.1,0.2-0.1h0c0.1,0,0.2,0,0.2,0.1l4.6,10.5c0,0.1,0,0.2-0.1,0.2h-0.4
				c-0.1,0-0.2-0.1-0.2-0.1l-1.2-2.8h-5.8l-1.2,2.8c0,0.1-0.1,0.1-0.2,0.1h-0.4C113.8,29.3,113.7,29.2,113.8,29.1z M121.2,25.8
				l-2.6-6.1h0l-2.6,6.1H121.2z"/>
		</g>
	</g>
	<g>
		<path class="st0" d="M55.3,19.2c-2.9,0-5.8,2.8-6.8,3.9L30.9,5.5L35,1.4l15.1,15.1l0.8-0.8L35.4,0.2c-0.2-0.2-0.6-0.2-0.8,0
			L30,4.7l-4.6-4.6c-0.2-0.2-0.6-0.2-0.8,0L9.2,15.7l0.8,0.8L25.1,1.4l4.1,4.1L11.6,23.1c-1.1-1.1-3.9-3.9-6.8-3.9
			C2.1,19.2,0,21.4,0,24c0,2.6,2.1,4.8,4.8,4.8c2.9,0,5.8-2.8,6.8-3.9l0.8,0.8l16.8,16.8l-4.1,4.1L10,31.5l-0.8,0.8l15.5,15.5
			c0.1,0.1,0.3,0.2,0.4,0.2s0.3-0.1,0.4-0.2l4.6-4.6l4.6,4.6c0.1,0.1,0.3,0.2,0.4,0.2c0.1,0,0.3-0.1,0.4-0.2l15.5-15.5l-0.8-0.8
			L35,46.6l-4.1-4.1l14.8-14.8l2.8-2.8c1.1,1.1,3.9,3.9,6.8,3.9c2.6,0,4.8-2.1,4.8-4.8C60.1,21.4,57.9,19.2,55.3,19.2z M4.8,27.6
			c-2,0-3.6-1.6-3.6-3.6c0-2,1.6-3.6,3.6-3.6c2.5,0,5.1,2.6,6,3.6C9.9,25,7.3,27.6,4.8,27.6z M30,6.4L47.7,24L30,41.6L12.4,24
			L30,6.4z M55.3,27.6c-2.5,0-5.1-2.6-6-3.6c0.9-1,3.6-3.6,6-3.6c2,0,3.6,1.6,3.6,3.6C58.9,26,57.3,27.6,55.3,27.6z"/>
		<g>
			<g>
				<path class="st0" d="M24,30.7v-0.2c0.4,0,0.7-0.1,0.9-0.2c0.2-0.1,0.4-0.2,0.6-0.4c0.2-0.2,0.3-0.5,0.4-0.8
					c0.1-0.3,0.1-0.8,0.1-1.5v-7.2c0-0.7,0-1.2-0.1-1.5c-0.1-0.3-0.2-0.6-0.4-0.8c-0.2-0.2-0.4-0.3-0.6-0.4
					c-0.2-0.1-0.5-0.1-0.9-0.2v-0.2h6.4c0.7,0,1.1,0,1.3,0c0.7,0.1,1.4,0.2,1.9,0.5c0.4,0.3,0.8,0.6,1,1c0.2,0.4,0.3,0.9,0.3,1.4
					c0,0.9-0.3,1.6-0.8,2.1c-0.2,0.2-0.4,0.4-0.6,0.5c-0.2,0.1-0.6,0.3-1,0.4c0.6,0.1,1.1,0.2,1.5,0.3c0.3,0.1,0.7,0.3,0.9,0.5
					c0.4,0.3,0.7,0.8,1,1.3c0.2,0.5,0.3,1.1,0.3,1.6c0,0.6-0.1,1.1-0.4,1.6c-0.2,0.5-0.6,0.9-1,1.2c-0.4,0.3-0.8,0.5-1.4,0.6
					c-0.5,0.1-1.3,0.2-2.2,0.2H24z M28.2,17.6v5.8H29c0.4,0,0.8,0,1.2-0.1c0.3-0.1,0.6-0.1,0.8-0.2c0.2-0.1,0.4-0.2,0.6-0.3
					c0.3-0.2,0.6-0.6,0.8-1c0.2-0.4,0.3-0.8,0.3-1.3c0-0.5-0.1-1-0.3-1.4c-0.2-0.4-0.4-0.8-0.7-1c-0.3-0.2-0.6-0.4-0.9-0.4
					c-0.3-0.1-0.9-0.1-1.6-0.1H28.2z M28.2,23.7v4c0,0.5,0,0.9,0.1,1.2c0.1,0.3,0.2,0.6,0.3,0.8c0.3,0.4,0.9,0.7,1.7,0.7
					c1.1,0,1.9-0.3,2.5-0.9c0.6-0.6,0.9-1.4,0.9-2.4c0-0.6-0.1-1.1-0.3-1.6c-0.2-0.5-0.4-0.9-0.8-1.1c-0.6-0.5-1.5-0.7-2.8-0.7H28.2
					z"/>
			</g>
		</g>
	</g>
</g>
</svg>
