<?xml version="1.0" encoding="utf-8"?>
<!-- Generator: Adobe Illustrator 23.0.3, SVG Export Plug-In . SVG Version: 6.00 Build 0)  -->
<svg version="1.1" xmlns="http://www.w3.org/2000/svg" xmlns:xlink="http://www.w3.org/1999/xlink" x="0px" y="0px"
	 viewBox="0 0 23.4 23.4" style="enable-background:new 0 0 23.4 23.4;" xml:space="preserve">
<style type="text/css">
	.st0{enable-background:new    ;}
	.st1{fill-rule:evenodd;clip-rule:evenodd;fill:#3F3F3F;}
	.st2{fill-rule:evenodd;clip-rule:evenodd;fill:#9B9293;}
</style>
<g id="Background_1_" class="st0">
</g>
<g id="Bag_xA0_Image_1_">
</g>
<g id="Profile_1_" class="st0">
</g>
<g id="Favorates_xA0_Image_1_">
</g>
<g id="Shape_1_1_" class="st0">
	<g id="Shape_1_5_">
		<g>
			<path class="st1" d="M1.7,5.1h20c0.9,0,1.7-0.8,1.7-1.7c0-0.9-0.8-1.7-1.7-1.7h-20C0.8,1.7,0,2.5,0,3.4C0,4.3,0.8,5.1,1.7,5.1z
				 M21.7,10h-20C0.8,10,0,10.8,0,11.7c0,0.9,0.8,1.7,1.7,1.7h20c0.9,0,1.7-0.8,1.7-1.7C23.3,10.8,22.6,10,21.7,10z M21.7,18.4h-20
				c-0.9,0-1.7,0.8-1.7,1.7c0,0.9,0.8,1.7,1.7,1.7h20c0.9,0,1.7-0.8,1.7-1.7C23.3,19.1,22.6,18.4,21.7,18.4z"/>
		</g>
	</g>
</g>
<g id="Search_Icon_1_" class="st0">
</g>
<g id="LIne_1_" class="st0">
</g>
<g id="_xBF_Qué_producto_estás_buscando_x3F_">
</g>
<g id="Vector_Smart_Object_xA0_Image_1_">
</g>
</svg>
