<?xml version="1.0" encoding="utf-8"?>
<!-- Generator: Adobe Illustrator 23.0.3, SVG Export Plug-In . SVG Version: 6.00 Build 0)  -->
<svg version="1.1" id="Layer_1" xmlns="http://www.w3.org/2000/svg" xmlns:xlink="http://www.w3.org/1999/xlink" x="0px" y="0px"
	 viewBox="0 0 23.4 23.4" style="enable-background:new 0 0 23.4 23.4;" xml:space="preserve">
<style type="text/css">
	.st0{fill-rule:evenodd;clip-rule:evenodd;fill:#4A555C;}
</style>
<path class="st0" d="M21,7.8c0,5.1-2.8,9-7.1,9c-1.4,0-2.7-0.8-3.2-1.6c0,0-0.8,3-0.9,3.6c-0.3,1-0.8,2-1.3,2.8
	c-0.6,1-1.2,1.6-1.2,1.6S7.1,22.7,7,21c0-0.9,0-2,0.2-3c0.3-1.1,1.7-7.1,1.7-7.1S8.5,10,8.5,8.8c0-1.9,1.1-3.4,2.5-3.4
	c1.2,0,1.8,0.9,1.8,2c0,1.2-0.8,3-1.2,4.6c-0.3,1.4,0.7,2.5,2.1,2.5c2.5,0,4.1-3.2,4.1-7c0-2.9-1.9-5-5.4-5c-4,0-6.4,3-6.4,6.3
	c0,1.1,0.3,1.9,0.9,2.6C7,11.7,7.1,11.8,7,12.1c-0.1,0.2-0.2,0.8-0.3,1c-0.1,0.3-0.4,0.5-0.7,0.3c-1.8-0.7-2.7-2.7-2.7-5
	c0-3.7,3.1-8.2,9.3-8.2C17.7,0.3,21,3.9,21,7.8z"/>
</svg>
