<?xml version="1.0" encoding="utf-8"?>
<!-- Generator: Adobe Illustrator 23.0.3, SVG Export Plug-In . SVG Version: 6.00 Build 0)  -->
<svg version="1.1" id="Layer_1" xmlns="http://www.w3.org/2000/svg" xmlns:xlink="http://www.w3.org/1999/xlink" x="0px" y="0px"
	 viewBox="0 0 23.4 23.4" style="enable-background:new 0 0 23.4 23.4;" xml:space="preserve">
<style type="text/css">
	.st0{enable-background:new    ;}
	.st1{fill-rule:evenodd;clip-rule:evenodd;fill:#3F3F3F;}
</style>
<g id="Background_1_" class="st0">
</g>
<g id="Bag_xA0_Image_1_">
</g>
<g id="Favorates_xA0_Image_1_">
</g>
<g id="Shape_1_1_" class="st0">
</g>
<g id="Search_Icon_1_" class="st0">
</g>
<g id="LIne_1_" class="st0">
</g>
<g id="_xBF_Qué_producto_estás_buscando_x3F_">
</g>
<g id="Profile_3_">
	<g>
		<path class="st1" d="M11.8,11.6c1.6,0,2.9-0.6,4.1-1.7c1.1-1.1,1.7-2.5,1.7-4.1S17,2.9,15.9,1.7C14.8,0.6,13.4,0,11.8,0
			S8.9,0.6,7.7,1.7C6.6,2.9,6,4.3,6,5.8c0,1.6,0.6,2.9,1.7,4.1C8.8,11,10.2,11.6,11.8,11.6z M22.3,17.7c0-0.5-0.1-1-0.2-1.6
			s-0.2-1.1-0.4-1.6c-0.2-0.5-0.4-1-0.6-1.5c-0.3-0.5-0.6-0.9-0.9-1.2s-0.8-0.6-1.3-0.8s-1.1-0.3-1.7-0.3c-0.1,0-0.3,0.1-0.6,0.3
			c-0.3,0.2-0.7,0.5-1.1,0.7c-0.4,0.3-1,0.5-1.6,0.7c-0.7,0.2-1.3,0.3-2,0.3s-1.3-0.1-2-0.3s-1.2-0.5-1.6-0.7
			C7.7,11.4,7.4,11.2,7,11c-0.3-0.2-0.5-0.3-0.6-0.3c-0.6,0-1.2,0.1-1.7,0.3s-0.9,0.5-1.3,0.8c-0.3,0.3-0.7,0.7-0.9,1.2
			c-0.3,0.5-0.5,1-0.6,1.5c-0.2,0.5-0.3,1-0.4,1.6c-0.1,0.6-0.2,1.1-0.2,1.6s-0.1,1-0.1,1.5c0,1.2,0.4,2.1,1.1,2.8
			C3,22.7,4,23,5.2,23h13.1c1.2,0,2.2-0.3,2.9-1c0.7-0.7,1.1-1.6,1.1-2.8C22.3,18.7,22.3,18.2,22.3,17.7z"/>
	</g>
</g>
</svg>
