<?xml version="1.0" encoding="utf-8"?>
<!-- Generator: Adobe Illustrator 23.0.4, SVG Export Plug-In . SVG Version: 6.00 Build 0)  -->
<svg version="1.0" id="Layer_1" xmlns="http://www.w3.org/2000/svg" xmlns:xlink="http://www.w3.org/1999/xlink" x="0px" y="0px"
	 viewBox="0 0 22 22" enable-background="new 0 0 22 22" xml:space="preserve">
<g>
	<path fill="#FF969C" d="M15.7,6.3c-0.3-0.3-0.9-0.3-1.2,0L11,9.8L7.5,6.3C7.1,6,6.6,6,6.3,6.3C6,6.6,6,7.1,6.3,7.5L9.8,11l-3.5,3.5
		c-0.3,0.3-0.3,0.9,0,1.2s0.9,0.3,1.2,0l3.5-3.5l3.5,3.5c0.3,0.3,0.9,0.3,1.2,0s0.3-0.9,0-1.2L12.2,11l3.5-3.5
		C16,7.1,16,6.6,15.7,6.3z"/>
	<path fill="#FF969C" d="M11,0.1C5,0.1,0.1,5,0.1,11S5,21.9,11,21.9S21.9,17,21.9,11S17,0.1,11,0.1z M11,20.9
		c-5.5,0-9.9-4.4-9.9-9.9S5.5,1.1,11,1.1s9.9,4.4,9.9,9.9S16.5,20.9,11,20.9z"/>
</g>
</svg>
