<?xml version="1.0" encoding="utf-8"?>
<!-- Generator: Adobe Illustrator 23.0.3, SVG Export Plug-In . SVG Version: 6.00 Build 0)  -->
<svg version="1.1" xmlns="http://www.w3.org/2000/svg" xmlns:xlink="http://www.w3.org/1999/xlink" x="0px" y="0px"
	 viewBox="0 0 23.4 23.4" style="enable-background:new 0 0 23.4 23.4;" xml:space="preserve">
<style type="text/css">
	.st0{enable-background:new    ;}
	.st1{fill-rule:evenodd;clip-rule:evenodd;fill:#3F3F3F;}
	.st2{fill-rule:evenodd;clip-rule:evenodd;fill:#9B9293;}
</style>
<g id="Background_1_" class="st0">
</g>
<g id="Bag_xA0_Image_1_">
</g>
<g id="Profile_1_" class="st0">
</g>
<g id="Favorates_xA0_Image_1_">
</g>
<g id="Shape_1_1_" class="st0">
</g>
<g id="Search_Icon_1_" class="st0">
	<g id="Search_Icon_3_">
		<g>
			<path class="st1" d="M22.8,20.6l-5.9-5.9c1-1.5,1.7-3.3,1.7-5.3c0-5.1-4.1-9.2-9.2-9.2c-5.4,0-9.7,4.6-9.2,10.2
				C0.6,14.5,4,18,8.2,18.5c2.4,0.3,4.6-0.4,6.4-1.6l5.9,5.9c0.6,0.6,1.7,0.6,2.3,0C23.4,22.2,23.4,21.2,22.8,20.6z M9.3,16.4
				c-3.9,0-7.1-3.2-7.1-7.1c0-3.9,3.2-7.1,7.1-7.1s7.1,3.2,7.1,7.1C16.4,13.2,13.2,16.4,9.3,16.4z"/>
		</g>
	</g>
</g>
<g id="LIne_1_" class="st0">
</g>
<g id="_xBF_Qué_producto_estás_buscando_x3F_">
</g>
<g id="Vector_Smart_Object_xA0_Image_1_">
</g>
</svg>
