<?xml version="1.0" encoding="utf-8"?>
<!-- Generator: Adobe Illustrator 23.0.3, SVG Export Plug-In . SVG Version: 6.00 Build 0)  -->
<svg version="1.1" id="Layer_1" xmlns="http://www.w3.org/2000/svg" xmlns:xlink="http://www.w3.org/1999/xlink" x="0px" y="0px"
	 viewBox="0 0 23.4 23.4" style="enable-background:new 0 0 23.4 23.4;" xml:space="preserve">
<style type="text/css">
	.st0{enable-background:new    ;}
	.st1{fill-rule:evenodd;clip-rule:evenodd;fill:#4A555C;}
	.st2{fill:#4A555C;}
</style>
<g id="Background_1_" class="st0">
</g>
<g id="Bag_xA0_Image_1_">
</g>
<g id="Profile_1_" class="st0">
</g>
<g id="Favorates_xA0_Image_1_">
</g>
<g id="Shape_1_1_" class="st0">
</g>
<g id="LIne_1_" class="st0">
</g>
<g id="_xBF_Qué_producto_estás_buscando_x3F_">
</g>
<g id="Vector_Smart_Object_xA0_Image_1_">
</g>
<g id="Shape_3">
	<g>
		<path class="st1" d="M-70,6.7C-70.6,2.3-75,0-79.8,0.6C-83.5,1-87.2,4-87.4,8.3c-0.1,2.6,0.7,4.6,3.2,5.2c1.1-1.9-0.4-2.3-0.6-3.7
			c-0.9-5.7,6.6-9.6,10.5-5.6c2.7,2.7,0.9,11.2-3.5,10.3c-4.2-0.8,2.1-7.6-1.3-8.9c-2.7-1.1-4.2,3.3-2.9,5.4
			c-0.8,3.7-2.4,7.2-1.7,11.9c2.1-1.5,2.9-4.5,3.5-7.6c1.1,0.7,1.7,1.3,3,1.4C-72.1,17.1-69.3,11.7-70,6.7z"/>
	</g>
</g>
<g id="Facebook_Icon_copy">
	<g>
		<path class="st1" d="M-46.3,7.7v-2c0-0.3,0-0.5,0-0.7c0-0.2,0.1-0.3,0.2-0.5c0.1-0.2,0.2-0.3,0.5-0.3c0.2-0.1,0.5-0.1,0.8-0.1h1.9
			V0h-3c-1.8,0-3,0.4-3.8,1.3c-0.8,0.9-1.1,2.2-1.1,3.9v2.4h-2.3v4h2.3v11.7h4.5V11.7h3l0.4-4H-46.3z"/>
	</g>
</g>
<g>
	<g>
		<path class="st2" d="M22.8,4.9c-0.7,0.4-1.6,0.6-2.5,0.7c0.9-0.6,1.6-1.4,1.9-2.6c-0.9,0.6-1.7,0.9-2.8,1.2
			c-0.7-0.9-1.9-1.4-3.2-1.4c-2.5,0-4.3,2.2-4.3,4.8c0,0.4,0,0.7,0.1,1c-3.8-0.1-7-2-9.1-4.9C2.5,4.3,2.3,5.1,2.3,5.9
			c0,1.6,0.7,3,1.9,3.9c-0.7,0-1.4-0.3-2-0.6l0,0c0,2.3,1.4,4.2,3.5,4.6c-0.4,0.1-0.7,0.1-1.2,0.1c-0.3,0-0.6,0-0.9-0.1
			c0.6,1.9,2.2,3.2,4.1,3.3c-1.4,1.3-3.3,2-5.5,2c-0.3,0-0.7,0-1,0c1.9,1.3,4.2,2.2,6.7,2.2c8.1,0,12.5-7.2,12.5-13.5
			c0-0.1,0-0.4,0-0.6C21.3,6.7,22.2,5.9,22.8,4.9z"/>
	</g>
</g>
</svg>
