<?xml version="1.0" encoding="utf-8"?>
<!-- Generator: Adobe Illustrator 23.0.3, SVG Export Plug-In . SVG Version: 6.00 Build 0)  -->
<svg version="1.1" id="Layer_1" xmlns="http://www.w3.org/2000/svg" xmlns:xlink="http://www.w3.org/1999/xlink" x="0px" y="0px"
	 viewBox="0 0 23.4 23.4" style="enable-background:new 0 0 23.4 23.4;" xml:space="preserve">
<style type="text/css">
	.st0{fill-rule:evenodd;clip-rule:evenodd;fill:#4A555C;}
</style>
<g id="WA_Logo">
	<g>
		<path class="st0" d="M19.9,3.5c-2.2-2.2-5-3.4-8.1-3.4C5.5,0.1,0.4,5.3,0.4,11.6c0,2,0.5,4,1.5,5.7l-1.6,5.9l6.1-1.6
			c1.7,0.9,3.6,1.4,5.5,1.4h0c0,0,0,0,0,0c6.3,0,11.4-5.1,11.4-11.4C23.3,8.5,22.1,5.6,19.9,3.5z M11.9,21.1L11.9,21.1
			c-1.7,0-3.4-0.5-4.8-1.3l-0.3-0.2l-3.6,0.9L4,17l-0.2-0.4c-1-1.5-1.5-3.3-1.5-5.1c0-5.2,4.3-9.5,9.5-9.5c2.5,0,4.9,1,6.7,2.8
			c1.8,1.8,2.8,4.2,2.8,6.7C21.4,16.8,17.1,21.1,11.9,21.1z M17.2,14c-0.3-0.1-1.7-0.8-2-0.9c-0.3-0.1-0.5-0.1-0.7,0.1
			c-0.2,0.3-0.8,0.9-0.9,1.1c-0.2,0.2-0.3,0.2-0.6,0.1c-0.3-0.1-1.2-0.5-2.3-1.4c-0.9-0.8-1.4-1.7-1.6-2s0-0.4,0.1-0.6
			c0.1-0.1,0.3-0.3,0.4-0.5c0.1-0.2,0.2-0.3,0.3-0.5c0.1-0.2,0-0.4,0-0.5C9.8,8.7,9.2,7.3,8.9,6.7C8.8,6.3,8.5,6.2,8.3,6.2
			c-0.2,0-0.4,0-0.6,0C7.5,6.2,7.2,6.3,7,6.6c-0.3,0.3-1,1.1-1,2.4c0,1.4,1,2.8,1.2,3c0.1,0.2,2,3.1,5,4.4c0.7,0.3,1.2,0.5,1.7,0.6
			c0.7,0.2,1.3,0.2,1.8,0.1c0.6-0.1,1.6-0.6,2-1.4c0.2-0.7,0.2-1.3,0.2-1.4C17.6,14.2,17.4,14.1,17.2,14z"/>
	</g>
</g>
</svg>
